<svg width="152" height="121" viewBox="0 0 152 121" fill="none" xmlns="http://www.w3.org/2000/svg">
<circle cx="76" cy="52" r="52" fill="#EAECF0"/>
<path d="M146.977 77.4911V88.5327C146.977 100.834 138.003 112.43 125.802 115.808C124.945 116.009 124.038 116.009 123.231 115.808C117.282 114.194 112.038 110.564 108.358 105.876C104.375 100.935 102.056 94.8348 102.056 88.5327V77.4911C102.056 75.3736 103.619 73.0542 105.535 72.2476L119.55 66.5C122.727 65.2396 126.256 65.2396 129.432 66.5L134.474 68.5673L143.498 72.2476C145.414 73.0542 146.977 75.3736 146.977 77.4911Z" fill="white" stroke="#E7E7E7" stroke-linecap="round" stroke-linejoin="round"/>
<path d="M136.136 55.4252L136.136 55.4281L134.071 67.8672L129.609 66.0378L129.604 66.0357C126.309 64.7283 122.648 64.7283 119.353 66.0357L119.348 66.0379L105.332 71.7854L105.328 71.7872C104.263 72.2359 103.321 73.091 102.648 74.1009C101.975 75.111 101.543 76.3151 101.543 77.4916V88.5332C101.543 94.6158 103.662 100.505 107.323 105.376H62.1637C55.5009 105.376 49.2055 100.058 48.0864 93.4917C48.0864 93.4914 48.0863 93.4911 48.0863 93.4909L41.734 55.4277L41.7336 55.4252C41.349 53.1896 41.719 50.5336 42.6538 48.0613C43.5886 45.5889 45.0682 43.3531 46.8462 41.9354L46.8467 41.935L80.021 15.4158L80.0216 15.4153C84.9308 11.4783 92.9376 11.4787 97.8461 15.4639L97.8495 15.4666L131.021 41.9334C131.022 41.9337 131.022 41.9341 131.022 41.9345C132.777 43.3528 134.257 45.5896 135.198 48.0623C136.139 50.5357 136.521 53.1911 136.136 55.4252Z" fill="white" stroke="#E7E7E7"/>
<circle cx="21" cy="19" r="5" fill="#F2F4F7"/>
<circle cx="18" cy="109" r="7" fill="#F2F4F7"/>
<circle cx="145" cy="35" r="7" fill="#F2F4F7"/>
<circle cx="134" cy="8" r="4" fill="#F2F4F7"/>
</svg>
